<svg id="Group_829" data-name="Group 829" xmlns="http://www.w3.org/2000/svg" width="33" height="31.879" viewBox="0 0 33 31.879">
  <path id="Path_524" data-name="Path 524" d="M8.3,8.457A1.839,1.839,0,1,0,10.134,10.3,1.839,1.839,0,0,0,8.3,8.457ZM4.25,10.3A4.046,4.046,0,1,1,8.3,14.341,4.046,4.046,0,0,1,4.25,10.3Zm8.674,9.717A48.741,48.741,0,0,0,7.139,28.49a1.1,1.1,0,1,1-1.923-1.083,50.9,50.9,0,0,1,6.061-8.865,15.117,15.117,0,0,1,6.079-4.477,8.2,8.2,0,0,1,6.354.377,18.014,18.014,0,0,1,6.037,5.144,1.1,1.1,0,1,1-1.711,1.395,15.87,15.87,0,0,0-5.259-4.538,6.007,6.007,0,0,0-4.7-.294,13.028,13.028,0,0,0-5.155,3.863Z" transform="translate(1.634 2.827)" fill="#ff6a57" fill-rule="evenodd"/>
  <path id="Path_525" data-name="Path 525" d="M2.3,4.3A6.988,6.988,0,0,1,7.238,2.25h10.71a1.1,1.1,0,1,1,0,2.207H7.238A4.781,4.781,0,0,0,2.457,9.238V23.949A4.781,4.781,0,0,0,7.238,28.73H24.891a4.781,4.781,0,0,0,4.781-4.781V16.593a1.1,1.1,0,0,1,2.207,0v7.355a6.988,6.988,0,0,1-6.988,6.988H7.238A6.988,6.988,0,0,1,.25,23.949V9.238A6.987,6.987,0,0,1,2.3,4.3Z" transform="translate(-0.25 0.942)" fill="#ff6a57" fill-rule="evenodd"/>
  <path id="Path_526" data-name="Path 526" d="M19.1.08a1.1,1.1,0,0,1,1.1,1.1V12.952a1.1,1.1,0,1,1-2.207,0V1.183A1.1,1.1,0,0,1,19.1.08Z" transform="translate(8.112 -0.08)" fill="#ff6a57" fill-rule="evenodd"/>
  <path id="Path_527" data-name="Path 527" d="M19.839.4A1.1,1.1,0,0,1,21.4.4l4.708,4.708A1.1,1.1,0,0,1,24.548,6.67L20.621,2.743,16.693,6.67a1.1,1.1,0,1,1-1.559-1.559Z" transform="translate(6.596 -0.08)" fill="#ff6a57" fill-rule="evenodd"/>
</svg>
