<svg xmlns="http://www.w3.org/2000/svg" width="434" height="82.001" viewBox="0 0 434 82.001">
  <g id="WhiteLogo-Logist-Tech" transform="translate(-204 -1455)">
    <path id="Subtraction_11" data-name="Subtraction 11" d="M82,82H61.971V52.075L45.948,47.362V82H0V0H82V82ZM28.747,13.2V52.546L44.77,47.834V17.908Z" transform="translate(204 1455)" fill="#fff"/>
    <g id="Group_33585" data-name="Group 33585" transform="translate(-249 1163)">
      <path id="Path_732" data-name="Path 732" d="M3.05,0V-35.5H12.8v27H28.9V0Zm44.8.3A17.076,17.076,0,0,1,40.5-1.25a18.185,18.185,0,0,1-5.65-4.075A18.463,18.463,0,0,1,31.2-11.1a17.885,17.885,0,0,1-1.3-6.7,17.43,17.43,0,0,1,1.35-6.75,17.923,17.923,0,0,1,3.775-5.725,18.406,18.406,0,0,1,5.75-3.95A17.739,17.739,0,0,1,48.05-35.7a17.076,17.076,0,0,1,7.35,1.55,17.989,17.989,0,0,1,5.65,4.1,18.4,18.4,0,0,1,3.625,5.8A18.063,18.063,0,0,1,65.95-17.6a17.247,17.247,0,0,1-1.35,6.725,18.213,18.213,0,0,1-3.75,5.7A18.446,18.446,0,0,1,55.125-1.2,17.485,17.485,0,0,1,47.85.3Zm-8.05-18a12.084,12.084,0,0,0,.5,3.475,9.1,9.1,0,0,0,1.5,2.975,7.578,7.578,0,0,0,2.525,2.1,7.705,7.705,0,0,0,3.625.8,7.661,7.661,0,0,0,3.65-.825,7.39,7.39,0,0,0,2.525-2.15,9.253,9.253,0,0,0,1.45-3.025,12.762,12.762,0,0,0,.475-3.45,12.084,12.084,0,0,0-.5-3.475,8.561,8.561,0,0,0-1.525-2.95,7.7,7.7,0,0,0-2.55-2.05A7.794,7.794,0,0,0,47.9-27.05a7.705,7.705,0,0,0-3.625.8,7.453,7.453,0,0,0-2.525,2.125,9.009,9.009,0,0,0-1.475,3A12.494,12.494,0,0,0,39.8-17.7ZM94.2-2.95A13.189,13.189,0,0,1,85.45.25a18.05,18.05,0,0,1-6.6-1.225,15.772,15.772,0,0,1-5.5-3.575A17.367,17.367,0,0,1,69.6-10.3a20.207,20.207,0,0,1-1.4-7.75,17.325,17.325,0,0,1,1.4-6.975,17.312,17.312,0,0,1,3.85-5.6,18.186,18.186,0,0,1,5.775-3.75A18.589,18.589,0,0,1,86.4-35.75a19.755,19.755,0,0,1,4.6.525,16.375,16.375,0,0,1,4.075,1.55,16.053,16.053,0,0,1,3.375,2.45A12.42,12.42,0,0,1,100.9-28l-7.25,5.55a8.174,8.174,0,0,0-3.15-3.375A8.437,8.437,0,0,0,86.05-27.1a7.263,7.263,0,0,0-3.2.7,7.48,7.48,0,0,0-2.5,1.95,9.345,9.345,0,0,0-1.65,2.975,11.422,11.422,0,0,0-.6,3.775,11.362,11.362,0,0,0,.6,3.8,8.838,8.838,0,0,0,1.675,2.925,7.455,7.455,0,0,0,2.575,1.9A8.074,8.074,0,0,0,86.3-8.4a9.967,9.967,0,0,0,7.5-3.5H87.65v-7h14.6V0H94.2ZM107.05,0V-35.5h9.75V0ZM144.4-23.9a27.243,27.243,0,0,0-3.1-1.6,28.34,28.34,0,0,0-3.025-1.125A10.917,10.917,0,0,0,135-27.15a4.551,4.551,0,0,0-2.075.4,1.4,1.4,0,0,0-.775,1.35,1.557,1.557,0,0,0,.45,1.15,4.265,4.265,0,0,0,1.3.825,16.317,16.317,0,0,0,2.075.725q1.225.35,2.775.85a36.359,36.359,0,0,1,4.425,1.65,13.731,13.731,0,0,1,3.375,2.125A8.178,8.178,0,0,1,148.7-15.1a10.774,10.774,0,0,1,.75,4.25,11.2,11.2,0,0,1-1.175,5.375A9.633,9.633,0,0,1,145.175-2a13.093,13.093,0,0,1-4.35,1.875A21.062,21.062,0,0,1,135.95.45a27.612,27.612,0,0,1-4-.3,34.709,34.709,0,0,1-4.075-.85,35.655,35.655,0,0,1-3.9-1.3A24.928,24.928,0,0,1,120.5-3.7l4.2-8.55a29.442,29.442,0,0,0,3.65,1.95,25.882,25.882,0,0,0,3.625,1.35,14.446,14.446,0,0,0,4.125.6,4.194,4.194,0,0,0,2.225-.425A1.3,1.3,0,0,0,138.95-9.9a1.609,1.609,0,0,0-.625-1.275A5.719,5.719,0,0,0,136.6-12.1q-1.1-.4-2.525-.8t-3.025-.95A26.152,26.152,0,0,1,127-15.575a10.983,10.983,0,0,1-2.8-2.1,7.5,7.5,0,0,1-1.625-2.675,10.423,10.423,0,0,1-.525-3.45,11.93,11.93,0,0,1,1.075-5.2,10.679,10.679,0,0,1,2.925-3.75,13.085,13.085,0,0,1,4.225-2.275A16.1,16.1,0,0,1,135.3-35.8a19.081,19.081,0,0,1,3.8.375,30.381,30.381,0,0,1,3.575.95,34.268,34.268,0,0,1,3.225,1.25q1.5.675,2.7,1.275Zm37-3.1H171.2V0h-9.75V-27H151.2v-8.5h30.2Zm.5,17.45v-8.5h15.65v8.5ZM228.2-27H218V0h-9.75V-27H198v-8.5h30.2ZM257.05-8.5V0h-25.3V-35.5H256.6V-27H241.5v5h12.9v7.9H241.5v5.6Zm2.05-9.55a17.525,17.525,0,0,1,1.225-6.4A17.378,17.378,0,0,1,263.9-30.1a18.223,18.223,0,0,1,5.7-4.05,18.023,18.023,0,0,1,7.65-1.55,17.9,17.9,0,0,1,8.925,2.125A13.843,13.843,0,0,1,291.8-27.95l-7.45,5.3a6.272,6.272,0,0,0-1.325-2.15,6.731,6.731,0,0,0-1.825-1.35,7.817,7.817,0,0,0-2.075-.7,11.342,11.342,0,0,0-2.075-.2,7.513,7.513,0,0,0-3.625.825,7.46,7.46,0,0,0-2.5,2.15,9.288,9.288,0,0,0-1.45,3A12.142,12.142,0,0,0,269-17.75a11.46,11.46,0,0,0,.55,3.55,9.26,9.26,0,0,0,1.6,3,7.824,7.824,0,0,0,2.575,2.075,7.451,7.451,0,0,0,3.425.775,9.77,9.77,0,0,0,2.05-.225,7.624,7.624,0,0,0,2.025-.75,6.835,6.835,0,0,0,1.75-1.35A5.985,5.985,0,0,0,284.2-12.7l7.95,4.75a10.117,10.117,0,0,1-2.425,3.5,15.394,15.394,0,0,1-3.7,2.6,19.616,19.616,0,0,1-4.45,1.6A20.47,20.47,0,0,1,276.95.3a16.451,16.451,0,0,1-7.225-1.575,18.324,18.324,0,0,1-5.65-4.175,19,19,0,0,1-3.675-5.9A18.141,18.141,0,0,1,259.1-18.05ZM327-35.5V0h-9.75V-13.9h-11.9V0H295.6V-35.5h9.75v13.1h11.9V-35.5Z" transform="translate(560 352)" fill="#fff"/>
    </g>
  </g>
</svg>
